<?xml version="1.0" encoding="utf-8"?>
<!DOCTYPE svg PUBLIC "-//W3C//DTD SVG 20010904//EN" "http://www.w3.org/TR/2001/REC-SVG-20010904/DTD/svg10.dtd">
<svg version="1.0" xmlns="http://www.w3.org/2000/svg" width="769pt" height="547pt" viewBox="0 0 769 547" style="" preserveAspectRatio="xMidYMid meet">
<g fill="#DFCAB3FF" stroke="#DFCAB3FF">
<path d="M 82.000 295.032 C 54.708 297.843 34.312 313.260 27.238 336.427 C 26.299 339.501 25.714 345.046 25.752 350.500 C 25.956 379.716 38.733 394.712 90.490 426.483 C 114.818 441.417 121.294 448.903 121.294 462.095 C 121.294 476.829 112.386 486.776 96.196 490.120 C 80.683 493.325 62.660 484.147 49.671 466.429 C 44.790 459.771 42.977 458.010 41.000 458.006 C 38.578 458.001 31.611 461.909 21.615 468.877 C 17.027 472.075 16.797 472.451 17.271 475.985 C 19.801 494.850 50.476 516.001 79.000 518.550 C 82.025 518.820 86.525 519.214 89.000 519.425 C 98.817 520.261 117.407 515.640 127.808 509.778 C 134.238 506.154 144.056 497.232 148.131 491.309 C 157.553 477.615 158.284 455.226 149.867 438.092 C 145.968 430.155 134.663 418.095 123.000 409.430 C 118.325 405.957 106.300 397.802 96.278 391.308 C 73.854 376.777 66.631 370.616 63.169 363.070 C 56.663 348.886 62.214 333.121 76.000 326.629 C 79.539 324.962 82.421 324.509 89.500 324.505 C 97.874 324.500 98.952 324.742 105.000 327.987 C 109.094 330.183 115.236 335.088 121.591 341.237 C 128.479 347.901 132.421 351.000 134.009 351.000 C 135.618 351.000 138.765 348.465 144.202 342.789 C 154.957 331.562 155.173 330.078 147.431 320.574 C 142.318 314.297 127.953 304.249 119.656 301.144 C 105.989 296.031 92.912 293.908 82.000 295.032 "/></g>
<g fill="#DFCAB3FF" stroke="#DFCAB3FF">
<path d="M 725.000 298.756 C 721.425 298.896 717.527 299.233 716.338 299.503 C 713.604 300.124 711.922 303.168 688.022 350.750 C 672.868 380.920 668.408 389.000 666.910 389.000 C 665.436 389.000 663.093 385.021 656.460 371.250 C 651.757 361.488 642.418 342.084 635.705 328.131 C 627.442 310.957 622.708 302.236 621.047 301.131 C 618.994 299.766 615.492 299.500 599.564 299.500 C 582.259 299.500 580.502 299.658 580.194 301.244 C 580.008 302.204 580.725 304.229 581.787 305.744 C 583.549 308.258 597.703 333.182 631.053 392.500 C 649.287 424.932 647.949 420.029 647.973 454.500 C 647.984 470.450 647.463 488.675 646.815 495.000 C 646.166 501.325 645.655 507.771 645.678 509.325 C 645.760 514.768 647.088 515.154 665.611 515.110 C 681.913 515.072 682.564 514.992 684.342 512.811 C 685.772 511.057 686.034 509.651 685.515 506.526 C 683.729 495.775 683.052 482.110 683.027 456.339 C 682.995 423.180 683.146 422.422 693.262 404.803 C 731.054 338.985 751.130 302.429 750.253 301.030 C 749.208 299.365 737.143 298.278 725.000 298.756 "/></g>
<g fill="#DFCAB3FF" stroke="#DFCAB3FF">
<path d="M 472.013 299.000 L 445.525 299.500 444.258 302.145 C 443.248 304.254 443.235 306.385 444.194 312.645 C 446.068 324.887 445.973 484.564 444.082 500.297 C 442.840 510.637 442.846 512.275 444.136 513.565 C 445.313 514.742 448.982 515.040 462.488 515.055 C 484.124 515.080 483.861 515.253 481.868 502.354 C 480.906 496.129 480.500 483.155 480.500 458.663 L 480.500 423.826 482.861 421.913 C 485.052 420.138 487.107 420.000 511.411 420.000 C 530.447 420.000 537.928 419.672 538.800 418.800 C 539.608 417.992 540.000 413.438 540.000 404.871 C 540.000 389.466 539.482 388.513 531.593 389.402 C 528.792 389.717 518.009 390.261 507.632 390.611 C 486.677 391.316 481.430 390.561 480.461 386.701 C 480.154 385.477 480.037 372.632 480.201 358.156 C 480.485 333.198 480.603 331.757 482.500 330.313 C 484.222 329.001 487.911 328.880 509.048 329.443 C 522.550 329.802 537.382 330.703 542.009 331.443 C 555.255 333.564 557.035 332.059 556.940 318.816 C 556.870 308.984 555.753 301.353 554.150 299.750 C 553.516 299.116 551.310 298.633 549.249 298.676 C 541.892 298.830 516.346 298.822 507.500 298.662 C 502.550 298.573 486.581 298.725 472.013 299.000 "/></g>
<g fill="#DFCAB3FF" stroke="#DFCAB3FF">
<path d="M 253.450 146.461 C 237.854 149.294 211.146 158.709 208.020 162.476 C 205.934 164.989 207.572 166.762 215.801 170.900 C 220.280 173.152 228.189 178.603 234.095 183.509 C 258.210 203.538 266.089 208.571 281.483 213.775 L 292.500 217.500 317.000 217.500 C 340.197 217.500 341.713 217.615 345.500 219.658 C 352.302 223.329 354.700 226.758 358.354 238.036 C 360.219 243.791 364.091 255.025 366.959 263.000 C 369.828 270.975 372.636 279.075 373.200 281.000 C 373.765 282.925 375.308 286.638 376.630 289.250 C 378.811 293.560 379.359 294.000 382.548 294.000 C 386.957 294.000 387.718 292.252 385.608 286.978 C 382.308 278.731 384.396 253.406 389.060 245.108 C 392.240 239.448 398.279 237.000 409.057 237.000 C 417.298 237.000 435.076 234.790 442.500 232.843 C 447.505 231.530 465.671 220.238 473.042 213.858 C 476.091 211.220 481.716 207.350 485.542 205.258 C 489.369 203.166 492.500 200.846 492.500 200.102 C 492.500 198.602 481.636 194.139 470.053 190.880 C 464.940 189.442 461.023 188.950 457.553 189.311 C 450.443 190.051 433.671 193.758 428.686 195.691 C 418.798 199.526 404.706 212.176 395.477 225.500 C 392.810 229.350 388.745 234.750 386.443 237.500 C 384.140 240.250 381.512 243.963 380.603 245.750 C 379.693 247.538 378.357 249.000 377.633 249.000 C 376.910 249.000 375.009 246.638 373.409 243.750 C 370.572 238.630 370.500 238.140 370.500 224.000 C 370.500 216.025 371.124 204.973 371.887 199.440 C 372.958 191.665 373.007 188.882 372.101 187.190 C 371.457 185.985 370.608 185.001 370.215 185.003 C 368.936 185.007 364.001 200.469 363.978 204.540 C 363.956 208.482 361.095 216.205 359.229 217.358 C 358.690 217.691 356.506 216.700 354.375 215.156 C 350.191 212.126 341.000 202.337 341.000 200.911 C 341.000 200.431 339.129 196.092 336.843 191.269 C 333.333 183.864 331.271 181.099 323.593 173.494 C 305.139 155.219 284.094 144.806 266.185 145.090 C 263.058 145.140 257.327 145.757 253.450 146.461 M 274.995 165.124 C 284.730 166.652 292.320 169.535 302.703 175.645 C 313.931 182.253 324.779 190.721 331.250 197.926 C 338.483 205.981 337.293 208.211 328.217 203.608 C 325.623 202.293 322.643 200.268 321.595 199.108 C 320.547 197.949 318.860 197.000 317.845 197.000 C 316.830 197.000 316.000 196.610 316.000 196.133 C 316.000 194.942 303.850 186.925 296.297 183.133 C 287.496 178.714 275.117 175.361 259.037 173.040 C 244.408 170.928 237.724 168.683 238.226 166.048 C 238.733 163.380 260.410 162.835 274.995 165.124 M 462.398 202.000 C 461.524 202.000 459.614 202.646 458.154 203.435 C 454.841 205.226 446.801 208.123 445.612 207.955 C 445.123 207.886 444.448 208.227 444.112 208.713 C 443.174 210.067 437.538 213.841 435.933 214.190 C 435.149 214.361 434.043 215.088 433.476 215.806 C 432.909 216.524 431.558 217.277 430.473 217.479 C 429.388 217.682 428.942 217.881 429.482 217.923 C 430.022 217.966 428.785 219.141 426.732 220.536 C 424.679 221.931 422.986 222.718 422.970 222.286 C 422.953 221.854 422.475 222.297 421.908 223.271 C 421.341 224.245 420.502 224.810 420.043 224.527 C 419.585 224.243 418.941 224.712 418.612 225.569 C 418.283 226.426 417.561 226.847 417.007 226.504 C 416.453 226.162 416.000 226.347 416.000 226.915 C 416.000 228.213 410.475 231.142 409.627 230.293 C 409.282 229.949 409.000 230.267 409.000 231.000 C 409.000 231.733 408.721 232.055 408.381 231.714 C 408.040 231.374 407.073 231.784 406.232 232.625 C 405.390 233.467 403.868 233.937 402.850 233.671 C 401.831 233.404 401.249 233.595 401.558 234.093 C 401.866 234.592 401.465 235.000 400.666 235.000 C 399.867 235.000 398.955 234.325 398.638 233.500 C 398.322 232.675 398.525 232.000 399.090 232.000 C 399.656 232.000 399.880 231.615 399.590 231.145 C 399.299 230.675 400.173 229.247 401.531 227.971 C 402.889 226.695 404.000 225.989 404.000 226.402 C 404.000 226.815 405.166 225.768 406.591 224.074 C 408.016 222.380 409.544 221.218 409.986 221.492 C 410.429 221.765 411.039 221.340 411.344 220.547 C 411.957 218.949 417.991 215.492 418.015 216.724 C 418.024 217.151 418.361 217.026 418.765 216.447 C 419.999 214.680 426.651 210.984 427.347 211.680 C 427.706 212.039 428.000 211.820 428.000 211.192 C 428.000 209.933 433.991 206.480 434.015 207.724 C 434.024 208.151 434.361 208.000 434.765 207.390 C 435.899 205.675 441.941 202.845 443.029 203.518 C 443.563 203.848 444.000 203.611 444.000 202.992 C 444.000 202.298 444.817 202.124 446.125 202.540 C 447.383 202.939 448.009 202.824 447.660 202.259 C 447.076 201.315 454.697 199.228 460.482 198.748 C 462.672 198.566 463.533 198.965 463.726 200.250 C 463.882 201.293 463.345 202.000 462.398 202.000 "/></g>
<g fill="#DFCAB3FF" stroke="#DFCAB3FF">
<path d="M 294.447 300.696 C 292.935 302.208 292.846 303.749 293.622 314.946 C 295.068 335.802 294.704 490.893 293.184 501.356 C 292.090 508.885 292.111 510.534 293.321 512.356 L 294.744 514.500 348.538 514.630 L 402.331 514.760 404.666 512.425 C 406.278 510.813 407.007 508.917 407.023 506.295 C 407.036 504.208 407.323 497.038 407.660 490.363 L 408.274 478.226 405.653 476.508 C 403.122 474.850 402.724 474.896 394.215 477.819 C 380.387 482.569 370.504 484.050 351.921 484.157 C 341.542 484.217 334.569 483.840 333.276 483.148 C 332.140 482.540 330.720 480.635 330.120 478.914 C 328.595 474.538 328.612 336.564 330.140 316.770 C 331.045 305.048 331.020 301.729 330.016 300.520 C 328.982 299.274 325.817 299.000 312.449 299.000 C 298.452 299.000 295.903 299.240 294.447 300.696 "/></g>
<g fill="#DFCAB3FF" stroke="#DFCAB3FF">
<path d="M 202.235 299.016 C 198.663 300.484 197.915 303.966 199.181 313.243 C 200.946 326.180 200.915 489.819 199.145 501.265 C 197.928 509.134 197.956 510.283 199.418 512.515 L 201.046 515.000 218.500 515.000 L 235.954 515.000 237.644 512.421 C 239.171 510.090 239.204 509.102 237.988 502.171 C 236.946 496.236 236.593 476.057 236.427 413.000 C 236.229 337.685 236.608 318.162 238.479 307.474 C 239.037 304.288 238.787 302.958 237.281 301.098 C 235.455 298.844 234.744 298.734 219.939 298.417 C 211.447 298.235 203.481 298.505 202.235 299.016 "/></g>
<g fill="#DFCAB3FF" stroke="#DFCAB3FF">
<path d="M 258.738 13.596 C 257.721 14.612 257.811 20.373 258.888 23.204 C 259.376 24.488 260.517 30.599 261.424 36.784 C 264.503 57.779 270.065 72.878 280.467 88.475 C 290.922 104.153 304.143 114.737 323.500 122.926 C 329.000 125.252 334.738 128.330 336.250 129.765 C 337.763 131.200 339.006 132.177 339.013 131.937 C 339.021 131.697 340.411 127.675 342.103 123.000 C 346.525 110.778 346.922 107.265 345.378 93.976 C 343.099 74.363 337.485 57.863 330.435 50.060 C 326.340 45.527 309.885 32.775 302.692 28.560 C 295.292 24.223 280.512 18.183 271.769 15.922 C 259.835 12.836 259.549 12.785 258.738 13.596 M 286.750 34.531 C 287.988 35.950 289.007 36.749 289.015 36.306 C 289.024 35.863 289.361 35.958 289.765 36.519 C 290.169 37.079 294.100 40.525 298.500 44.177 C 306.383 50.718 313.930 58.000 312.828 58.000 C 312.518 58.000 313.772 59.599 315.614 61.553 C 317.457 63.507 318.920 65.419 318.864 65.803 C 318.809 66.186 318.819 66.275 318.888 66.000 C 318.957 65.725 319.885 66.822 320.950 68.438 C 322.015 70.053 322.660 71.741 322.384 72.188 C 322.108 72.634 322.388 73.000 323.006 73.000 C 324.428 73.000 331.294 87.716 330.484 89.027 C 330.153 89.562 330.265 90.000 330.734 90.000 C 331.633 90.000 335.675 100.966 335.249 102.250 C 335.112 102.663 335.378 103.000 335.839 103.000 C 336.966 103.000 339.161 107.930 338.506 108.990 C 338.221 109.451 338.531 110.010 339.196 110.232 C 340.096 110.532 340.161 111.888 339.452 115.559 C 338.733 119.278 338.010 120.574 336.500 120.851 C 335.400 121.052 334.790 120.915 335.145 120.547 C 335.500 120.178 334.708 118.709 333.385 117.282 C 332.062 115.854 331.150 114.516 331.358 114.308 C 331.567 114.100 330.448 112.550 328.872 110.863 C 327.297 109.177 326.257 107.392 326.563 106.898 C 326.868 106.404 326.653 106.000 326.085 106.000 C 324.008 106.000 317.329 88.895 318.601 86.836 C 318.885 86.376 318.593 86.000 317.952 86.000 C 317.311 86.000 317.045 85.325 317.362 84.500 C 317.678 83.675 317.475 83.000 316.910 83.000 C 316.344 83.000 316.136 82.588 316.447 82.085 C 316.758 81.582 316.672 81.020 316.256 80.835 C 315.432 80.470 311.360 72.847 311.724 72.352 C 311.848 72.185 310.831 70.841 309.464 69.367 C 308.098 67.893 307.194 66.472 307.456 66.211 C 307.718 65.949 306.822 64.862 305.466 63.795 C 304.110 62.728 303.000 61.469 303.000 60.998 C 303.000 60.527 300.300 57.566 297.000 54.419 C 293.700 51.271 291.000 48.202 291.000 47.598 C 291.000 46.994 289.415 45.235 287.478 43.690 C 285.541 42.144 284.189 40.504 284.472 40.045 C 284.756 39.585 284.288 38.941 283.431 38.612 C 282.574 38.283 282.153 37.561 282.496 37.007 C 282.838 36.453 282.615 36.000 282.000 36.000 C 281.385 36.000 281.131 35.597 281.435 35.105 C 281.740 34.612 281.288 33.941 280.431 33.612 C 279.574 33.283 279.136 32.589 279.458 32.069 C 280.441 30.478 284.374 31.806 286.750 34.531 "/></g>
<g fill="#DFCAB3FF" stroke="#DFCAB3FF">
<path d="M 418.761 71.693 C 414.804 72.326 396.440 81.866 390.000 86.635 C 382.587 92.124 371.723 103.805 368.051 110.234 C 363.918 117.472 360.587 132.290 360.575 143.500 C 360.567 151.005 360.954 153.248 362.908 157.000 C 366.539 163.973 371.937 170.916 374.931 172.464 L 377.648 173.870 379.915 166.685 C 385.291 149.640 390.203 142.593 406.739 128.196 C 410.720 124.730 415.421 119.795 417.186 117.229 C 423.676 107.797 428.705 91.429 429.241 78.000 L 429.500 71.500 425.500 71.377 C 423.300 71.310 420.268 71.452 418.761 71.693 "/></g>
<g fill="#DFCAB3FF" stroke="#DFCAB3FF">
<path d="M 443.631 81.702 C 443.284 82.049 443.000 86.304 443.000 91.156 C 443.000 101.485 441.348 106.688 435.254 115.553 C 429.590 123.792 423.867 129.613 414.443 136.720 C 405.459 143.495 400.922 148.243 398.144 153.778 C 395.072 159.895 392.069 169.565 391.356 175.627 L 390.687 181.318 397.409 180.691 C 409.247 179.585 419.454 176.238 426.311 171.212 C 445.966 156.808 454.598 140.938 456.612 115.500 C 457.136 108.882 456.862 106.205 455.026 100.000 C 451.552 88.263 445.995 79.339 443.631 81.702 "/></g>
<g fill="#FFF3E0FF" stroke="#FFF3E0FF">
<path d="M 320.034 94.000 C 320.026 94.825 321.253 97.975 322.760 101.000 C 326.055 107.613 325.979 106.655 322.561 98.500 C 321.179 95.200 320.041 93.175 320.034 94.000 "/></g>
<g fill="#FFF3E0FF" stroke="#FFF3E0FF">
<path d="M 317.715 65.135 C 320.347 68.785 321.923 70.585 321.219 69.135 C 320.514 67.686 318.361 64.700 316.434 62.500 C 313.990 59.710 314.377 60.507 317.715 65.135 "/></g>
<g fill="#FFF3E0FF" stroke="#FFF3E0FF">
<path d="M 428.207 218.774 L 422.915 222.500 428.016 219.500 C 430.822 217.850 433.204 216.173 433.309 215.774 C 433.414 215.375 431.118 216.725 428.207 218.774 "/></g>
<g fill="#FFF3E0FF" stroke="#FFF3E0FF">
<path d="M 325.936 78.750 C 327.568 81.913 328.925 84.148 328.952 83.717 C 329.018 82.638 324.085 73.000 323.467 73.000 C 323.193 73.000 324.304 75.588 325.936 78.750 "/></g>
<g fill="#FFF3E0FF" stroke="#FFF3E0FF">
<path d="M 296.500 53.500 L 302.000 59.000 296.500 53.500 L 291.000 48.000 296.500 53.500 "/></g>
<g fill="#FFF3E0FF" stroke="#FFF3E0FF">
<path d="M 307.500 52.500 L 313.000 58.000 307.500 52.500 L 302.000 47.000 307.500 52.500 "/></g>
</svg>
